<?xml version="1.0" encoding="utf-8"?>
<!-- Generator: Adobe Illustrator 18.0.0, SVG Export Plug-In . SVG Version: 6.00 Build 0)  -->
<!DOCTYPE svg PUBLIC "-//W3C//DTD SVG 1.1//EN" "http://www.w3.org/Graphics/SVG/1.1/DTD/svg11.dtd">
<svg version="1.1" id="Layer_1" xmlns="http://www.w3.org/2000/svg" xmlns:xlink="http://www.w3.org/1999/xlink" x="0px" y="0px"
	 viewBox="0 0 16 16" enable-background="new 0 0 16 16" xml:space="preserve">
<g>
	<path fill="#3E6481" d="M13.8,9.2c-0.8,0-1.5,0.5-1.8,1.2l-1.8-0.3V7.3c0-0.3-0.1-0.6-0.4-0.8l2.9-2.7c0.3,0.2,0.6,0.3,1,0.3
		c1.1,0,1.9-0.9,1.9-1.9c0-1.1-0.9-1.9-1.9-1.9c-1.1,0-1.9,0.9-1.9,1.9c0,0.3,0.1,0.6,0.2,0.9L9,6C8.1,5.7,6.9,5.6,6,5.5V4.1
		c0.8-0.2,1.5-1,1.5-1.9c0-1.1-0.9-1.9-1.9-1.9c-1.1,0-1.9,0.9-1.9,1.9c0,0.9,0.6,1.7,1.5,1.9v1.5c-1.9,0-4.8,0.3-4.8,1.8v6.5
		c0,1.8,3.9,1.9,5,1.9c1.2,0,2.3-0.1,3.1-0.3c1.2-0.3,1.8-0.9,1.8-1.6v-2.8l1.6,0.2c0.1,1,0.9,1.7,1.9,1.7c1.1,0,1.9-0.9,1.9-1.9
		C15.7,10.1,14.9,9.2,13.8,9.2z M9,13.8c0,0-0.2,0.2-0.9,0.4s-1.7,0.3-2.8,0.3c-2.5,0-3.7-0.5-3.7-0.6v-2.1C1.8,11.9,2,11.9,2.2,12
		c0.8,0.2,1.9,0.3,3.1,0.3c0.6,0,2.5,0,3.7-0.5V13.8z M9,10.4c-0.2,0.1-0.5,0.2-0.8,0.3C7.4,10.9,6.4,11,5.3,11
		c-1.9,0-3.2-0.3-3.8-0.6V8.5c0.3,0,0.5,0.1,0.7,0.1C3,8.8,4.1,8.9,5.3,8.9c0.6,0,2.5,0,3.7-0.5V10.4z M9,7.6
		C8.5,7.8,7.2,8.1,5.3,8.1S2.1,7.8,1.5,7.5V7.4c0.2-0.2,1.3-0.6,3.7-0.6c2.3,0,3.6,0.4,3.8,0.6V7.6z"/>
	<path fill="#FFFFFF" d="M9,11.7v2.1c0,0-0.2,0.2-0.9,0.4s-1.7,0.3-2.8,0.3c-2.5,0-3.7-0.5-3.7-0.6v-2.1C1.8,11.9,2,11.9,2.2,12
		c0.8,0.2,1.9,0.3,3.1,0.3C5.9,12.2,7.8,12.2,9,11.7z"/>
	<path fill="#FFFFFF" d="M9,8.5v1.9c-0.2,0.1-0.5,0.2-0.8,0.3C7.4,10.9,6.4,11,5.3,11c-1.9,0-3.2-0.3-3.8-0.6V8.5
		c0.3,0,0.5,0.1,0.7,0.1C3,8.8,4.1,8.9,5.3,8.9C5.9,8.9,7.8,8.9,9,8.5z"/>
	<path fill="#FFFFFF" d="M9,7.4v0.2C8.5,7.8,7.2,8.1,5.3,8.1S2.1,7.8,1.5,7.5V7.4c0.2-0.2,1.3-0.6,3.7-0.6C7.5,6.8,8.8,7.2,9,7.4z"
		/>
</g>
</svg>
