<?xml version="1.0" encoding="utf-8"?>
<!-- Generator: Adobe Illustrator 18.0.0, SVG Export Plug-In . SVG Version: 6.00 Build 0)  -->
<!DOCTYPE svg PUBLIC "-//W3C//DTD SVG 1.1//EN" "http://www.w3.org/Graphics/SVG/1.1/DTD/svg11.dtd">
<svg version="1.1" id="Layer_1" xmlns="http://www.w3.org/2000/svg" xmlns:xlink="http://www.w3.org/1999/xlink" x="0px" y="0px"
	 viewBox="0 0 16 16" enable-background="new 0 0 16 16" xml:space="preserve">
<g>
	<path fill="#3E6481" d="M12.5,8.9c-0.6,0-1.2,0.4-1.4,0.9L9.7,9.6V7.5c0-0.2-0.1-0.5-0.3-0.6l2.2-2.1C11.9,4.9,12.1,5,12.4,5
		c0.9,0,1.5-0.7,1.5-1.5c0-0.9-0.7-1.5-1.5-1.5C11.6,2,11,2.7,11,3.5C11,3.8,11,4,11.1,4.2L8.8,6.5C8.1,6.2,7.2,6.2,6.5,6.1V5
		c0.6-0.2,1.2-0.8,1.2-1.5C7.6,2.7,6.9,2,6.2,2C5.3,2,4.7,2.7,4.7,3.5c0,0.7,0.5,1.3,1.2,1.5v1.2c-1.5,0-3.7,0.2-3.7,1.4v5
		C2.1,14,5.1,14,6,14c0.9,0,1.8-0.1,2.4-0.2c0.9-0.2,1.4-0.7,1.4-1.2v-2.2l1.2,0.2c0.1,0.8,0.7,1.3,1.5,1.3c0.9,0,1.5-0.7,1.5-1.5
		C14,9.6,13.4,8.9,12.5,8.9z M8.8,12.5c0,0-0.2,0.2-0.7,0.3S6.8,13,5.9,13c-1.9,0-2.9-0.4-2.9-0.5V11C3.2,11,3.4,11,3.5,11.1
		c0.6,0.2,1.5,0.2,2.4,0.2c0.5,0,1.9,0,2.9-0.4V12.5z M8.8,9.9C8.6,9.9,8.4,10,8.2,10.1c-0.6,0.2-1.4,0.2-2.2,0.2
		c-1.5,0-2.5-0.2-2.9-0.5V8.4c0.2,0,0.4,0.1,0.5,0.1C4.1,8.6,5,8.7,5.9,8.7c0.5,0,1.9,0,2.9-0.4V9.9z M8.8,7.7
		C8.4,7.9,7.4,8.1,5.9,8.1S3.4,7.9,3,7.6V7.5c0.2-0.2,1-0.5,2.9-0.5c1.8,0,2.8,0.3,2.9,0.5V7.7z"/>
	<path fill="#FFFFFF" d="M8.8,10.9v1.6c0,0-0.2,0.2-0.7,0.3S6.8,13,5.9,13c-1.9,0-2.9-0.4-2.9-0.5V11C3.2,11,3.4,11,3.5,11.1
		c0.6,0.2,1.5,0.2,2.4,0.2C6.4,11.3,7.9,11.3,8.8,10.9z"/>
	<path fill="#FFFFFF" d="M8.8,8.4v1.5C8.6,9.9,8.4,10,8.2,10.1c-0.6,0.2-1.4,0.2-2.2,0.2c-1.5,0-2.5-0.2-2.9-0.5V8.4
		c0.2,0,0.4,0.1,0.5,0.1C4.1,8.6,5,8.7,5.9,8.7C6.4,8.7,7.9,8.7,8.8,8.4z"/>
	<path fill="#FFFFFF" d="M8.8,7.5v0.2C8.4,7.9,7.4,8.1,5.9,8.1S3.4,7.9,3,7.6V7.5c0.2-0.2,1-0.5,2.9-0.5C7.6,7.1,8.6,7.4,8.8,7.5z"
		/>
</g>
</svg>
