<?xml version="1.0" encoding="utf-8"?>
<!-- Generator: Adobe Illustrator 18.0.0, SVG Export Plug-In . SVG Version: 6.00 Build 0)  -->
<!DOCTYPE svg PUBLIC "-//W3C//DTD SVG 1.1//EN" "http://www.w3.org/Graphics/SVG/1.1/DTD/svg11.dtd">
<svg version="1.1" id="Layer_1" xmlns="http://www.w3.org/2000/svg" xmlns:xlink="http://www.w3.org/1999/xlink" x="0px" y="0px"
	 viewBox="0 0 16 16" enable-background="new 0 0 16 16" xml:space="preserve">
<g>
	<g>
		<path fill="#FE9C04" d="M2,6.8c0.8,0,1.5-0.5,1.8-1.2l1.8,0.3v2.9c0,0.3,0.2,0.6,0.4,0.8l-1.7,1.6c-0.3-0.2-0.7-0.3-1.1-0.3
			c-1.1,0-2,0.9-2,2c0,1.1,0.9,2,2,2c1.1,0,2-0.9,2-2c0-0.3-0.1-0.7-0.3-1L7,10.1c0.9,0.3,2.1,0.5,3.1,0.5v1.5
			c-0.9,0.2-1.5,1-1.5,1.9c0,1.1,0.9,2,2,2c1.1,0,2-0.9,2-2c0-0.9-0.6-1.7-1.5-1.9v-1.5c1.9,0,5-0.3,5-1.8V2c0-1.8-4-2-5.2-2
			C9.6,0,8.4,0.1,7.6,0.4C6.3,0.7,5.7,1.2,5.7,2v2.8L4,4.6c-0.1-1-1-1.8-2-1.8c-1.1,0-2,0.9-2,2C0,5.9,0.9,6.8,2,6.8z"/>
	</g>
</g>
<g>
	<path fill="#FFFFFF" d="M14.7,8.5c-0.1,0-0.3,0.2-0.9,0.4C13,9.1,12,9.2,10.9,9.2C8.3,9.2,7.1,8.7,7,8.6V6.4
		c0.2,0.1,0.4,0.1,0.7,0.2c0.9,0.2,2,0.3,3.2,0.3c0.6,0,2.6,0,3.8-0.5V8.5z"/>
	<path fill="#FFFFFF" d="M14.7,5.1c-0.2,0.1-0.5,0.2-0.8,0.3c-0.8,0.2-1.8,0.3-3,0.3c-2,0-3.3-0.3-3.9-0.6V3
		c0.2,0.1,0.4,0.1,0.7,0.2c0.9,0.2,2,0.3,3.2,0.3c0.6,0,2.6,0,3.8-0.5V5.1z"/>
	<path fill="#FFFFFF" d="M14.7,2.1c-0.5,0.3-1.9,0.6-3.8,0.6c-2,0-3.3-0.3-3.9-0.6V1.9c0.2-0.2,1.4-0.6,3.8-0.6
		c2.4,0,3.7,0.4,3.9,0.6V2.1z"/>
</g>
</svg>
