<?xml version="1.0" encoding="utf-8"?>
<!-- Generator: Adobe Illustrator 22.0.1, SVG Export Plug-In . SVG Version: 6.00 Build 0)  -->
<svg version="1.1" id="Layer_1" xmlns="http://www.w3.org/2000/svg" xmlns:xlink="http://www.w3.org/1999/xlink" x="0px" y="0px"
	 viewBox="0 0 16 16" style="enable-background:new 0 0 16 16;" xml:space="preserve">
<style type="text/css">
	.st0{fill:#FF9C00;}
	.st1{fill:#FFFFFF;}
</style>
<g>
	<g>
		<path class="st0" d="M10.3,0.6C8.9,0.6,7.7,0.7,6.9,1C5.6,1.3,5,1.8,4.9,2.6v2.8v1.1v2.9c0,0.3,0.2,0.6,0.4,0.8c0,0,0.2,0.2,1,0.5
			c0.9,0.3,2.1,0.5,3.1,0.5h1c1.9,0,5-0.3,5-1.8V2.6C15.5,0.8,11.5,0.6,10.3,0.6z M14.1,9.2c-0.1,0-0.3,0.2-0.9,0.4
			c-0.8,0.2-1.8,0.3-2.9,0.3c-2.6,0-3.8-0.5-3.9-0.6V7C6.5,7.1,6.7,7.1,7,7.2c0.9,0.2,2,0.3,3.2,0.3c0.6,0,2.6,0,3.8-0.5v2.2H14.1z
			 M14.1,5.7c-0.2,0.1-0.5,0.2-0.8,0.3c-0.8,0.2-1.8,0.3-3,0.3C8.3,6.3,7,6,6.4,5.7V3.6C6.5,3.7,6.7,3.7,7,3.8C7.9,4,9,4.1,10.3,4.1
			c0.6,0,2.6,0,3.8-0.5V5.7z M14.1,2.7c-0.5,0.3-1.9,0.6-3.8,0.6C8.3,3.3,7,3,6.4,2.7V2.5c0.2-0.2,1.4-0.6,3.8-0.6s3.7,0.4,3.9,0.6
			V2.7z"/>
	</g>
	<g>
		<path class="st1" d="M10.3,0.6C8.9,0.6,7.7,0.7,6.9,1C5.6,1.3,5,1.8,4.9,2.6v2.8v1.1v2.9c0,0.3,0.2,0.6,0.4,0.8c0,0,0.2,0.2,1,0.5
			c0.9,0.3,2.1,0.5,3.1,0.5h1c1.9,0,5-0.3,5-1.8V2.6C15.5,0.8,11.5,0.6,10.3,0.6z"/>
	</g>
	<g>
		<path class="st0" d="M10.3,0.6C8.9,0.6,7.7,0.7,6.9,1C5.6,1.3,5,1.8,4.9,2.6v2.8v1.1v2.9c0,0.3,0.2,0.6,0.4,0.8c0,0,0.2,0.2,1,0.5
			c0.9,0.3,2.1,0.5,3.1,0.5h1c1.9,0,5-0.3,5-1.8V2.6C15.5,0.8,11.5,0.6,10.3,0.6z M14.1,9.2c-0.1,0-0.3,0.2-0.9,0.4
			c-0.8,0.2-1.8,0.3-2.9,0.3c-2.6,0-3.8-0.5-3.9-0.6V7C6.5,7.1,6.7,7.1,7,7.2c0.9,0.2,2,0.3,3.2,0.3c0.6,0,2.6,0,3.8-0.5v2.2H14.1z
			 M14.1,5.7c-0.2,0.1-0.5,0.2-0.8,0.3c-0.8,0.2-1.8,0.3-3,0.3C8.3,6.3,7,6,6.4,5.7V3.6C6.5,3.7,6.7,3.7,7,3.8C7.9,4,9,4.1,10.3,4.1
			c0.6,0,2.6,0,3.8-0.5V5.7z M14.1,2.7c-0.5,0.3-1.9,0.6-3.8,0.6C8.3,3.3,7,3,6.4,2.7V2.5c0.2-0.2,1.4-0.6,3.8-0.6s3.7,0.4,3.9,0.6
			V2.7z"/>
	</g>
</g>
<g>
	<path class="st0" d="M6.3,13.1c-1.9,0-3.5-1.6-3.5-3.5c0-0.3,0.2-0.5,0.5-0.5s0.5,0.2,0.5,0.5c0,1.4,1.1,2.5,2.5,2.5
		c0.3,0,0.5,0.2,0.5,0.5S6.6,13.1,6.3,13.1z"/>
</g>
<g>
	<path class="st0" d="M5.9,15.6c-3.1,0-5.6-2.5-5.6-5.6c0-0.3,0.2-0.5,0.5-0.5S1.3,9.7,1.3,10c0,2.5,2.1,4.6,4.6,4.6
		c0.3,0,0.5,0.2,0.5,0.5S6.2,15.6,5.9,15.6z"/>
</g>
</svg>
