<?xml version="1.0" encoding="utf-8"?>
<!-- Generator: Adobe Illustrator 22.0.1, SVG Export Plug-In . SVG Version: 6.00 Build 0)  -->
<svg version="1.1" id="Layer_1" xmlns="http://www.w3.org/2000/svg" xmlns:xlink="http://www.w3.org/1999/xlink" x="0px" y="0px"
	 viewBox="0 0 24 24" style="enable-background:new 0 0 24 24;" xml:space="preserve">
<style type="text/css">
	.st0{fill:#FF9C00;}
	.st1{fill:#FFFFFF;}
</style>
<g>
	<g>
		<g>
			<g>
				<path class="st0" d="M14.5,4c-1.4,0-2.7,0.1-3.5,0.5C9.5,4.8,9,5.2,8.8,6.2v3.1v1.1v3.2c0,0.3,0.2,0.7,0.5,0.9
					c0,0,0.2,0.2,1.1,0.6c1,0.3,2.3,0.6,3.3,0.6h1.1c2,0,5.3-0.3,5.3-1.9V6.2C20.1,4.2,15.8,4,14.5,4z M18.6,13.2
					c-0.1,0-0.3,0.2-1,0.5c-0.9,0.2-1.9,0.3-3.2,0.3c-2.8,0-4.1-0.6-4.2-0.7v-2.4c0.2,0.1,0.5,0.1,0.8,0.2c1,0.2,2.2,0.3,3.4,0.3
					c0.7,0,2.8,0,4.1-0.6V13.2z M18.6,9.5c-0.2,0.1-0.6,0.2-0.9,0.3c-0.9,0.2-1.9,0.3-3.2,0.3c-2.2,0-3.5-0.3-4.2-0.7V7.2
					c0.2,0.1,0.5,0.1,0.8,0.2c1,0.2,2.2,0.3,3.4,0.3c0.7,0,2.8,0,4.1-0.6V9.5z M18.6,6.3C18,6.6,16.6,7,14.5,7
					c-2.2,0-3.5-0.3-4.2-0.7V6c0.2-0.2,1.5-0.7,4.1-0.7s4,0.5,4.2,0.7V6.3z"/>
			</g>
		</g>
		<g>
			<g>
				<path class="st1" d="M14.5,4c-1.4,0-2.7,0.1-3.5,0.5C9.5,4.8,9,5.2,8.8,6.2v3.1v1.1v3.2c0,0.3,0.2,0.7,0.5,0.9
					c0,0,0.2,0.2,1.1,0.6c1,0.3,2.3,0.6,3.3,0.6h1.1c2,0,5.3-0.3,5.3-1.9V6.2C20.1,4.2,15.8,4,14.5,4z"/>
			</g>
		</g>
		<g>
			<g>
				<path class="st0" d="M14.5,4c-1.4,0-2.7,0.1-3.5,0.5C9.5,4.8,9,5.2,8.8,6.2v3.1v1.1v3.2c0,0.3,0.2,0.7,0.5,0.9
					c0,0,0.2,0.2,1.1,0.6c1,0.3,2.3,0.6,3.3,0.6h1.1c2,0,5.3-0.3,5.3-1.9V6.2C20.1,4.2,15.8,4,14.5,4z M18.6,13.2
					c-0.1,0-0.3,0.2-1,0.5c-0.9,0.2-1.9,0.3-3.2,0.3c-2.8,0-4.1-0.6-4.2-0.7v-2.4c0.2,0.1,0.5,0.1,0.8,0.2c1,0.2,2.2,0.3,3.4,0.3
					c0.7,0,2.8,0,4.1-0.6V13.2z M18.6,9.5c-0.2,0.1-0.6,0.2-0.9,0.3c-0.9,0.2-1.9,0.3-3.2,0.3c-2.2,0-3.5-0.3-4.2-0.7V7.2
					c0.2,0.1,0.5,0.1,0.8,0.2c1,0.2,2.2,0.3,3.4,0.3c0.7,0,2.8,0,4.1-0.6V9.5z M18.6,6.3C18,6.6,16.6,7,14.5,7
					c-2.2,0-3.5-0.3-4.2-0.7V6c0.2-0.2,1.5-0.7,4.1-0.7s4,0.5,4.2,0.7V6.3z"/>
			</g>
		</g>
	</g>
	<g>
		<path class="st0" d="M10.2,17.4c-2,0-3.7-1.6-3.7-3.7c0-0.3,0.2-0.5,0.5-0.5s0.5,0.2,0.5,0.5c0,1.5,1.2,2.7,2.7,2.7
			c0.3,0,0.5,0.2,0.5,0.5S10.5,17.4,10.2,17.4z"/>
	</g>
	<g>
		<path class="st0" d="M9.8,20C6.6,20,4,17.4,4,14.1c0-0.3,0.2-0.5,0.5-0.5c0.3,0,0.5,0.2,0.5,0.5c0,2.7,2.2,4.9,4.9,4.9
			c0.3,0,0.5,0.2,0.5,0.5S10.1,20,9.8,20z"/>
	</g>
</g>
</svg>
