<?xml version="1.0" encoding="utf-8"?>
<!-- Generator: Adobe Illustrator 18.0.0, SVG Export Plug-In . SVG Version: 6.00 Build 0)  -->
<!DOCTYPE svg PUBLIC "-//W3C//DTD SVG 1.1//EN" "http://www.w3.org/Graphics/SVG/1.1/DTD/svg11.dtd">
<svg version="1.1" id="Layer_1" xmlns="http://www.w3.org/2000/svg" xmlns:xlink="http://www.w3.org/1999/xlink" x="0px" y="0px"
	 viewBox="0 0 24 24" enable-background="new 0 0 24 24" xml:space="preserve">
<g>
	<g>
		<g>
			<path fill="#FE9C04" d="M5.2,10.7c0.9,0,1.7-0.6,2-1.3l2,0.3v3.2c0,0.3,0.2,0.7,0.4,0.9l-1.9,1.8c-0.3-0.2-0.8-0.3-1.2-0.3
				c-1.2,0-2.2,1-2.2,2.2c0,1.2,1,2.2,2.2,2.2s2.2-1,2.2-2.2c0-0.3-0.1-0.8-0.3-1.1l2.3-2c1,0.3,2.3,0.6,3.5,0.6v1.7
				c-1,0.2-1.7,1.1-1.7,2.1c0,1.2,1,2.2,2.2,2.2s2.2-1,2.2-2.2c0-1-0.7-1.9-1.7-2.1v-1.7c2.1,0,5.6-0.3,5.6-2V5.3
				c0-2-4.5-2.2-5.8-2.2c-1.5,0-2.8,0.1-3.7,0.4C10,3.8,9.4,4.4,9.4,5.3v3.1L7.5,8.2c-0.1-1.1-1.1-2-2.2-2C4,6.2,3,7.2,3,8.4
				S4,10.7,5.2,10.7z"/>
		</g>
	</g>
	<g>
		<path fill="#FFFFFF" d="M19.4,12.6c-0.1,0-0.3,0.2-1,0.4c-0.9,0.2-2,0.3-3.2,0.3c-2.9,0-4.2-0.6-4.4-0.7v-2.5
			c0.2,0.1,0.4,0.1,0.8,0.2c1,0.2,2.2,0.3,3.6,0.3c0.7,0,2.9,0,4.2-0.6V12.6z"/>
		<path fill="#FFFFFF" d="M19.4,8.8c-0.2,0.1-0.6,0.2-0.9,0.3c-0.9,0.2-2,0.3-3.4,0.3c-2.2,0-3.7-0.3-4.4-0.7V6.4
			c0.2,0.1,0.4,0.1,0.8,0.2c1,0.2,2.2,0.3,3.6,0.3c0.7,0,2.9,0,4.2-0.6V8.8z"/>
		<path fill="#FFFFFF" d="M19.4,5.4c-0.6,0.3-2.1,0.7-4.2,0.7c-2.2,0-3.7-0.3-4.4-0.7V5.2C11,5,12.4,4.5,15.1,4.5s4.1,0.4,4.4,0.7
			L19.4,5.4L19.4,5.4z"/>
	</g>
</g>
</svg>
